<?xml version="1.0" standalone="no"?>
<!DOCTYPE svg PUBLIC "-//W3C//DTD SVG 20010904//EN"
 "http://www.w3.org/TR/2001/REC-SVG-20010904/DTD/svg10.dtd">
<svg version="1.0" xmlns="http://www.w3.org/2000/svg"
 width="512.000000pt" height="512.000000pt" viewBox="0 0 512.000000 512.000000"
 preserveAspectRatio="xMidYMid meet">

<g transform="translate(0.000000,512.000000) scale(0.100000,-0.100000)"
fill="#5599E4" stroke="none">
<path d="M2325 5109 c-894 -83 -1680 -630 -2070 -1441 -142 -296 -239 -671
-247 -959 -3 -82 0 -100 15 -117 38 -42 112 -35 135 11 6 12 16 78 22 147 28
328 104 597 249 885 238 470 612 839 1086 1070 231 113 460 184 710 221 164
25 506 25 660 1 415 -65 763 -206 1084 -440 l64 -46 -243 -3 -242 -3 -24 -28
c-31 -37 -31 -81 1 -112 l24 -25 376 0 376 0 24 25 25 24 0 374 c0 361 -1 374
-20 395 -28 30 -68 38 -99 21 -48 -27 -51 -46 -51 -311 0 -137 -3 -248 -6
-248 -4 0 -25 15 -48 34 -158 129 -481 307 -701 385 -353 125 -736 174 -1100
140z"/>
<path d="M2405 4344 c-16 -2 -66 -9 -110 -15 -363 -48 -728 -232 -1000 -504
-699 -699 -699 -1831 0 -2530 393 -393 944 -581 1492 -510 401 53 754 227
1038 510 353 353 540 827 522 1320 -13 336 -95 609 -268 892 -133 217 -355
439 -572 572 -208 127 -420 207 -657 248 -83 14 -385 26 -445 17z m88 -467
c35 -54 110 -47 139 13 14 28 18 61 18 161 l0 125 78 -8 c232 -24 480 -107
672 -225 432 -267 717 -717 768 -1215 l8 -78 -125 0 c-143 0 -189 -14 -205
-62 -14 -41 3 -80 44 -100 28 -14 61 -18 161 -18 l125 0 -8 -77 c-51 -500
-335 -949 -768 -1216 -192 -118 -440 -201 -672 -225 l-78 -8 0 125 c0 100 -4
133 -18 161 -20 41 -62 57 -105 41 -44 -17 -57 -62 -57 -204 l0 -123 -77 8
c-499 51 -949 336 -1216 768 -118 192 -201 440 -225 673 l-8 77 125 0 c100 0
133 4 161 18 66 33 66 111 0 144 -28 14 -61 18 -161 18 l-125 0 8 78 c68 651
520 1195 1149 1382 89 26 248 56 329 62 l35 3 5 -135 c4 -107 9 -142 23 -163z"/>
<path d="M2518 3655 c-17 -10 -31 -29 -37 -53 -7 -22 -11 -186 -11 -419 l0
-382 -22 -12 c-33 -17 -97 -80 -114 -111 l-15 -28 -212 0 c-248 0 -282 -6
-303 -56 -12 -29 -12 -39 0 -68 21 -50 55 -56 303 -56 l212 0 15 -28 c62 -119
217 -168 341 -107 152 74 185 285 64 403 -19 19 -46 40 -61 48 l-28 15 0 382
c0 234 -4 397 -11 419 -7 26 -19 43 -39 53 -36 18 -47 18 -82 0z m99 -1037
c51 -48 15 -138 -56 -138 -47 0 -81 32 -81 79 0 72 84 109 137 59z"/>
<path d="M5011 2551 c-49 -13 -60 -45 -72 -208 -11 -136 -10 -154 4 -177 32
-49 118 -41 143 14 7 14 17 87 24 162 10 119 9 140 -4 166 -17 33 -58 52 -95
43z"/>
<path d="M45 2357 c-22 -18 -27 -31 -27 -68 0 -55 29 -233 44 -272 23 -59 90
-75 133 -32 30 29 31 51 10 184 -9 53 -18 111 -21 130 -12 73 -86 104 -139 58z"/>
<path d="M4918 2034 c-21 -11 -32 -29 -44 -72 -9 -31 -29 -98 -45 -149 -30
-97 -29 -121 6 -156 25 -25 87 -22 112 6 26 27 97 248 97 301 0 30 -6 43 -27
62 -32 27 -60 30 -99 8z"/>
<path d="M145 1855 c-14 -13 -25 -35 -25 -49 0 -51 95 -291 125 -316 27 -22
81 -17 110 10 34 32 32 63 -9 162 -18 46 -41 107 -51 135 -9 29 -26 60 -38 68
-33 23 -84 19 -112 -10z"/>
<path d="M4741 1553 c-18 -16 -62 -92 -143 -246 -34 -64 0 -127 68 -127 49 0
76 31 147 167 71 137 74 178 16 208 -37 20 -62 19 -88 -2z"/>
<path d="M351 1384 c-30 -39 -26 -71 19 -148 73 -125 127 -194 158 -201 58
-12 102 23 102 83 0 29 -135 254 -168 280 -9 6 -33 12 -53 12 -29 0 -42 -6
-58 -26z"/>
<path d="M4423 1063 c-32 -38 -79 -92 -105 -121 -65 -72 -65 -126 -1 -160 52
-28 91 -2 209 139 75 90 89 124 67 165 -18 37 -30 44 -75 44 -33 0 -42 -7 -95
-67z"/>
<path d="M655 975 c-43 -42 -35 -85 30 -155 106 -115 172 -170 205 -170 44 0
80 39 80 87 0 34 -9 46 -113 150 -98 98 -117 113 -145 113 -22 0 -41 -9 -57
-25z"/>
<path d="M4090 724 c-25 -20 -78 -61 -118 -91 -40 -29 -78 -64 -84 -78 -23
-52 18 -115 76 -115 26 0 54 14 116 61 132 98 170 136 170 174 0 18 -9 44 -21
59 -31 39 -82 36 -139 -10z"/>
<path d="M1054 650 c-26 -10 -54 -48 -54 -72 0 -41 29 -72 134 -143 130 -86
150 -95 193 -83 57 15 75 84 35 131 -23 26 -238 166 -265 171 -12 3 -32 1 -43
-4z"/>
<path d="M3583 403 c-104 -51 -134 -70 -143 -92 -23 -57 15 -115 74 -115 43 0
271 110 297 143 42 53 4 132 -63 130 -19 0 -88 -28 -165 -66z"/>
<path d="M1491 382 c-43 -21 -58 -60 -40 -104 10 -24 28 -38 78 -60 92 -42
219 -88 242 -88 27 0 79 53 79 79 0 31 -20 68 -44 79 -19 10 -274 112 -279
112 -1 0 -17 -8 -36 -18z"/>
<path d="M3108 236 c-120 -32 -152 -50 -162 -92 -7 -28 16 -79 39 -88 32 -12
88 -6 194 20 127 32 159 47 171 80 16 40 12 63 -15 89 -32 33 -76 31 -227 -9z"/>
<path d="M1955 205 c-31 -30 -33 -82 -5 -113 25 -26 65 -38 212 -59 129 -19
155 -14 177 34 16 36 13 59 -11 88 -20 23 -41 29 -163 50 -174 30 -180 30
-210 0z"/>
<path d="M2579 171 c-56 -4 -103 -11 -112 -19 -27 -23 -36 -65 -22 -99 22 -52
42 -57 204 -49 178 9 210 23 210 91 0 58 -41 86 -126 83 -32 -1 -101 -4 -154
-7z"/>
</g>
</svg>
