<svg width="223" height="55" viewBox="0 0 223 55" fill="none" xmlns="http://www.w3.org/2000/svg">
<path d="M57.36 54.8474L50.4937 46.8154H54.5196V2.17206H19.7367V4.97392L23.7879 6.11038H50.4087V46.7157L50.4064 46.7134L23.7925 46.711V6.11508L2.04943 0V24.1413C0.918454 24.1413 0 25.7064 0 27.6398C0 29.572 0.918454 31.1366 2.04943 31.1366V51.5178L23.6977 46.8389L17.766 54.8474H57.36ZM10.0565 31.7025C9.12423 31.7025 8.3195 30.8633 7.88009 29.6272H6.96279C5.7893 29.6272 4.83811 28.6889 4.83811 27.5307C4.83811 26.3726 5.7893 25.4332 6.96279 25.4332H7.88009C8.3195 24.1947 9.12423 23.3532 10.0565 23.3532C11.4545 23.3532 12.5878 25.2232 12.5878 27.5307C12.5872 29.8377 11.4545 31.7025 10.0565 31.7025Z" fill="url(#paint0_linear_10_2)"/>
<path d="M84.5639 18.0585L86.2971 9H90.4361L86.918 27.4867H82.779L80.218 17.319L77.6829 27.4867H73.5181L70 9H74.1648L75.8721 18.0585L78.1486 9H82.3134L84.5639 18.0585ZM103.396 9C105.155 9 106.656 10.4789 106.656 12.3012L106.604 24.2119C106.604 26.0342 105.155 27.4867 103.37 27.4867H97.0066C95.2476 27.4867 93.799 26.0342 93.799 24.2119V12.3012C93.799 10.4789 95.2476 9 97.0066 9H103.396ZM102.465 23.2612V13.2519H97.9379V23.2612H102.465ZM119.9 9C121.685 9 123.134 10.4789 123.134 12.3012V19.2469C123.134 20.6466 122.28 21.8351 121.09 22.3104L123.134 27.4867H118.736L116.77 22.5481H114.468V27.4867H110.329V9H119.9ZM118.141 18.2962C118.607 18.2962 118.995 17.9264 118.995 17.4511V14.0971C118.995 13.6217 118.607 13.2519 118.141 13.2519H114.468V18.2962H118.141ZM130.92 9V23.2612H137.594V27.4867H126.781V9H130.92ZM150.916 9C152.675 9 154.124 10.4789 154.124 12.3012V24.1855C154.124 26.0078 152.675 27.4867 150.916 27.4867H141.319V9H150.916ZM149.985 22.3633V14.1235C149.985 13.6217 149.597 13.2519 149.132 13.2519H145.458V23.2612H149.132C149.597 23.2612 149.985 22.865 149.985 22.3633ZM171.146 16.1306C172.93 16.1306 174.379 17.6095 174.379 19.4318V24.2119C174.379 26.0342 172.93 27.4867 171.146 27.4867H162.971V23.2612H170.214V20.3825H166.179C164.394 20.3825 162.971 18.9036 162.971 17.0813V12.3012C162.971 10.4789 164.42 9 166.179 9H174.379V13.2519H167.11V16.1306H171.146ZM178.104 9H190.935V13.2519H186.589V27.4867H182.45V13.2519H178.104V9ZM201.386 9L206.43 27.4867H202.291L201.567 24.8194H197.092L196.367 27.4867H192.228L197.273 9H201.386ZM198.256 20.5146H200.403L199.316 16.5796L198.256 20.5146ZM219.726 9C221.511 9 222.96 10.4789 222.96 12.3012V19.2469C222.96 20.6466 222.106 21.8351 220.916 22.3104L222.96 27.4867H218.562L216.596 22.5481H214.294V27.4867H210.155V9H219.726ZM217.967 18.2962C218.433 18.2962 218.821 17.9264 218.821 17.4511V14.0971C218.821 13.6217 218.433 13.2519 217.967 13.2519H214.294V18.2962H217.967Z" fill="url(#paint1_linear_10_2)"/>
<path d="M73 45.654V38.1065H75.4363C77.7105 38.1065 78.866 39.6651 78.866 41.8748C78.866 44.1006 77.7106 45.6538 75.4363 45.6538H73V45.654ZM74.0404 44.6932H75.3945C77.01 44.6932 77.7785 43.599 77.7785 41.875C77.7785 40.1617 77.01 39.0621 75.3945 39.0621H74.0404V44.6934V44.6932ZM83.8118 45.7554C81.7153 45.7554 80.1155 44.2823 80.1155 41.875C80.1155 39.4732 81.7153 38.0053 83.8118 38.0053C85.8978 38.0053 87.5028 39.4731 87.5028 41.875C87.5028 44.2823 85.8978 45.7554 83.8118 45.7554ZM83.8118 44.7573C85.2914 44.7573 86.4625 43.7111 86.4625 41.8751C86.4625 40.055 85.2914 39.0089 83.8118 39.0089C82.327 39.0089 81.1507 40.055 81.1507 41.8751C81.1507 43.7112 82.327 44.7573 83.8118 44.7573ZM92.4225 45.7554C90.326 45.7554 88.7262 44.2823 88.7262 41.875C88.7262 39.4732 90.326 38.0053 92.4225 38.0053C94.5085 38.0053 96.1135 39.4731 96.1135 41.875C96.1135 44.2823 94.5085 45.7554 92.4225 45.7554ZM92.4225 44.7573C93.9021 44.7573 95.0732 43.7111 95.0732 41.8751C95.0732 40.055 93.9021 39.0089 92.4225 39.0089C90.9377 39.0089 89.7614 40.055 89.7614 41.8751C89.7614 43.7112 90.9377 44.7573 92.4225 44.7573ZM101.838 45.654L99.9249 42.2594H98.8897V45.654H97.8493V38.1065H100.338C101.885 38.1065 102.591 39.0726 102.591 40.2575C102.591 41.309 101.985 42.0402 100.97 42.2164L103.057 45.6538H101.838V45.654ZM98.8897 39.0248V41.448H100.197C101.159 41.448 101.593 40.9569 101.593 40.2417C101.593 39.5372 101.159 39.0248 100.197 39.0248H98.8897ZM106.889 45.7554C105.346 45.7554 104.217 45.0028 103.966 43.7218L105.027 43.4656C105.195 44.3463 105.942 44.8534 106.925 44.8534C107.715 44.8534 108.473 44.5225 108.457 43.6151C108.447 42.7184 107.495 42.4729 106.486 42.19C105.341 41.8697 104.196 41.5014 104.196 40.1137C104.196 38.7099 105.331 38.0054 106.674 38.0054C107.976 38.0054 109.147 38.5659 109.424 39.8629L108.415 40.1244C108.232 39.2864 107.547 38.9128 106.721 38.9128C105.979 38.9128 105.242 39.2437 105.242 40.103C105.242 40.8823 106.068 41.1118 107.004 41.368C108.18 41.6936 109.529 42.0673 109.529 43.5831C109.529 45.1096 108.274 45.7554 106.889 45.7554L106.889 45.7554ZM120.142 45.654H118.955L118.375 44.8854C117.69 45.4244 116.843 45.7607 115.923 45.7607C114.574 45.7607 113.534 45.0562 113.534 43.7005C113.534 42.5743 114.245 42.0138 115.578 41.1545C115.018 40.3966 114.773 39.9695 114.773 39.4625C114.773 38.9928 114.971 38.6352 115.29 38.3843C115.604 38.1334 116.048 38 116.529 38C117.538 38 118.296 38.5604 118.296 39.4731C118.296 40.1777 117.842 40.7061 116.848 41.3359L118.469 43.4602C118.908 42.8304 119.164 42.0725 119.164 41.368H120.1C120.1 42.4141 119.703 43.4282 119.049 44.2235L120.142 45.654ZM115.944 38.9499C115.813 39.0833 115.735 39.2755 115.735 39.5103C115.735 39.8519 115.897 40.0761 116.31 40.6312L116.378 40.722C117.031 40.3003 117.376 39.9267 117.376 39.473C117.376 38.9872 116.984 38.7203 116.545 38.7203C116.315 38.7203 116.101 38.8004 115.944 38.9499L115.944 38.9499ZM115.96 44.8907C116.676 44.8907 117.319 44.6078 117.836 44.1648L116.075 41.811C115.092 42.4408 114.48 42.8572 114.48 43.6684C114.48 44.5011 115.123 44.8907 115.96 44.8907H115.96ZM126.076 45.654L123.99 38.1065H125.072L126.776 44.2444L128.585 38.1065H129.495L131.304 44.2444L133.014 38.1065H134.091L132.005 45.654H130.755L129.04 40.0392L127.325 45.654H126.076V45.654ZM135.56 45.654V38.1065H136.6V45.654H135.56ZM143.836 38.1065H144.871V45.654H143.747L139.883 39.6653V45.654H138.853V38.1065H139.967L143.836 44.0684V38.1065H143.836ZM147.119 45.654V38.1065H149.555C151.83 38.1065 152.985 39.6651 152.985 41.8748C152.985 44.1006 151.83 45.6538 149.555 45.6538H147.119V45.654ZM148.16 44.6932H149.514C151.129 44.6932 151.898 43.599 151.898 41.875C151.898 40.1617 151.129 39.0621 149.514 39.0621H148.16V44.6934V44.6932ZM157.931 45.7554C155.834 45.7554 154.235 44.2823 154.235 41.875C154.235 39.4732 155.834 38.0053 157.931 38.0053C160.017 38.0053 161.622 39.4731 161.622 41.875C161.622 44.2823 160.017 45.7554 157.931 45.7554ZM157.931 44.7573C159.41 44.7573 160.582 43.7111 160.582 41.8751C160.582 40.055 159.41 39.0089 157.931 39.0089C156.446 39.0089 155.27 40.055 155.27 41.8751C155.27 43.7112 156.446 44.7573 157.931 44.7573ZM164.665 45.654L162.579 38.1065H163.661L165.365 44.2444L167.174 38.1065H168.084L169.893 44.2444L171.602 38.1065H172.679L170.593 45.654H169.344L167.629 40.0392L165.914 45.654H164.665V45.654ZM176.465 45.7554C174.922 45.7554 173.793 45.0028 173.542 43.7218L174.603 43.4656C174.771 44.3463 175.518 44.8534 176.501 44.8534C177.291 44.8534 178.049 44.5225 178.033 43.6151C178.023 42.7184 177.071 42.4729 176.062 42.19C174.917 41.8697 173.772 41.5014 173.772 40.1137C173.772 38.7099 174.907 38.0054 176.25 38.0054C177.552 38.0054 178.723 38.5659 179 39.8629L177.991 40.1244C177.808 39.2864 177.123 38.9128 176.297 38.9128C175.555 38.9128 174.818 39.2437 174.818 40.103C174.818 40.8823 175.644 41.1118 176.58 41.368C177.756 41.6936 179.105 42.0673 179.105 43.5831C179.105 45.1096 177.85 45.7554 176.465 45.7554L176.465 45.7554Z" fill="url(#paint2_linear_10_2)"/>
<defs>
<linearGradient id="paint0_linear_10_2" x1="28.68" y1="0" x2="28.68" y2="54.8474" gradientUnits="userSpaceOnUse">
<stop stop-color="#8F5E25"/>
<stop offset="0.494792" stop-color="#A49E59"/>
<stop offset="1" stop-color="#8F5E25"/>
</linearGradient>
<linearGradient id="paint1_linear_10_2" x1="146.48" y1="9" x2="146.48" y2="27.4867" gradientUnits="userSpaceOnUse">
<stop stop-color="#8F5E25"/>
<stop offset="0.494792" stop-color="#A49E59"/>
<stop offset="1" stop-color="#8F5E25"/>
</linearGradient>
<linearGradient id="paint2_linear_10_2" x1="126.052" y1="38" x2="126.052" y2="45.7607" gradientUnits="userSpaceOnUse">
<stop stop-color="#8F5E25"/>
<stop offset="0.494792" stop-color="#A49E59"/>
<stop offset="1" stop-color="#8F5E25"/>
</linearGradient>
</defs>
</svg>
