<?xml version="1.0" standalone="no"?>
<!DOCTYPE svg PUBLIC "-//W3C//DTD SVG 20010904//EN"
 "http://www.w3.org/TR/2001/REC-SVG-20010904/DTD/svg10.dtd">
<svg version="1.0" xmlns="http://www.w3.org/2000/svg"
 width="512.000000pt" height="512.000000pt" viewBox="0 0 512.000000 512.000000"
 preserveAspectRatio="xMidYMid meet">

<g transform="translate(0.000000,512.000000) scale(0.100000,-0.100000)"
fill="#5599E4" stroke="none">
<path d="M2494 5076 c-373 -265 -748 -452 -1164 -580 -214 -65 -378 -101 -624
-136 -77 -11 -134 -24 -143 -33 -23 -23 -31 -80 -38 -287 -7 -202 8 -580 25
-624 12 -33 44 -49 81 -41 59 13 61 25 48 306 -6 155 -7 306 -2 389 l8 135 85
12 c313 45 659 140 955 260 251 102 592 286 768 414 l67 49 68 -49 c176 -129
518 -313 768 -414 299 -122 640 -214 954 -260 l85 -12 8 -140 c15 -250 -14
-722 -64 -1035 -176 -1116 -651 -1928 -1404 -2401 -105 -66 -390 -209 -416
-209 -9 0 -87 36 -175 79 -533 266 -924 652 -1224 1211 -201 373 -342 815
-420 1321 -22 139 -35 173 -70 184 -30 10 -75 -12 -89 -41 -24 -53 68 -526
164 -844 33 -111 117 -340 155 -425 16 -37 30 -73 30 -79 0 -7 -42 -37 -92
-66 -190 -108 -378 -264 -378 -314 0 -14 19 -64 42 -112 36 -72 41 -87 28 -94
-8 -5 -127 -85 -265 -177 -267 -179 -281 -193 -254 -248 11 -21 65 -56 231
-147 l218 -120 0 -245 0 -244 25 -24 c13 -14 34 -25 46 -25 25 0 866 492 892
522 27 31 21 57 -38 179 l-54 114 61 28 c34 15 83 35 109 44 l47 17 78 -74
c174 -163 399 -324 604 -433 124 -66 306 -147 330 -147 24 0 206 81 330 147
205 109 430 270 604 433 l78 74 47 -17 c26 -9 75 -29 109 -44 l61 -28 -54
-114 c-59 -122 -65 -148 -37 -179 25 -30 866 -522 891 -522 12 0 33 11 46 25
l25 24 0 244 0 245 218 120 c166 91 220 126 231 147 27 55 13 69 -254 248
-137 92 -257 172 -265 177 -13 7 -8 22 28 94 23 48 42 98 42 112 0 50 -188
206 -378 315 -78 44 -93 56 -89 73 3 12 27 75 55 141 223 539 344 1202 346
1895 1 321 -6 418 -32 451 -14 17 -41 24 -147 39 -361 51 -711 147 -1020 279
-240 104 -537 269 -710 396 -121 89 -123 89 -191 41z m-1470 -3432 c57 -121
256 -421 369 -557 22 -26 38 -49 36 -51 -2 -1 -69 -34 -149 -73 -80 -39 -180
-96 -223 -127 -43 -31 -82 -56 -87 -56 -4 0 -84 145 -176 322 l-168 322 45 39
c65 58 303 214 330 216 3 1 13 -15 23 -35z m3154 4 c85 -47 221 -140 271 -185
l45 -39 -168 -322 c-92 -177 -172 -322 -176 -322 -5 0 -44 25 -87 56 -43 31
-143 88 -223 127 -80 39 -146 71 -148 73 -2 1 42 61 98 133 104 134 229 325
290 444 19 37 36 67 38 67 1 0 28 -14 60 -32z m-3397 -845 c89 -170 116 -213
137 -221 15 -6 72 -18 127 -27 55 -9 100 -17 101 -18 1 -1 -118 -73 -265 -159
l-266 -157 -5 205 c-5 191 -6 207 -25 220 -11 9 -98 58 -193 111 l-173 95 198
133 198 132 28 -51 c15 -28 78 -146 138 -263z m4117 52 c2 -2 -75 -46 -170
-98 -95 -53 -182 -102 -193 -111 -19 -13 -20 -29 -25 -220 l-5 -205 -266 157
c-147 86 -266 158 -265 159 1 1 46 9 101 18 55 9 112 21 127 26 21 9 52 60
164 274 l137 263 196 -130 c108 -72 197 -132 199 -133z m-3683 -136 c9 -17 14
-33 12 -36 -3 -3 -29 -1 -59 4 l-53 8 40 28 c22 15 41 27 42 27 1 0 10 -14 18
-31z m2776 -15 c7 -8 -6 -13 -42 -18 -28 -4 -53 -5 -56 -2 -2 2 3 18 12 35
l16 32 30 -18 c17 -10 35 -23 40 -29z"/>
<path d="M2489 4513 c-439 -301 -823 -455 -1329 -533 -74 -11 -129 -24 -138
-33 -44 -44 -42 -530 4 -892 66 -527 241 -1037 476 -1389 78 -117 117 -140
166 -98 43 35 38 59 -34 172 -282 438 -441 963 -484 1598 -11 164 -13 434 -4
468 5 17 21 23 115 38 407 65 850 237 1197 466 l102 68 103 -68 c346 -229 788
-401 1196 -466 l109 -18 7 -35 c4 -19 5 -131 4 -249 -4 -214 -4 -214 20 -233
30 -25 75 -24 99 1 24 26 32 104 31 305 0 193 -12 312 -31 332 -9 9 -64 22
-138 33 -501 77 -904 238 -1324 529 -32 23 -67 41 -76 41 -10 0 -42 -17 -71
-37z"/>
<path d="M3125 3375 c-22 -8 -42 -15 -45 -15 -2 0 -165 -161 -362 -357 l-357
-357 -143 140 c-166 163 -195 180 -306 172 -75 -6 -112 -21 -160 -69 -73 -72
-98 -174 -67 -270 16 -49 40 -77 267 -305 280 -282 302 -298 408 -298 112 1
117 5 617 506 494 495 492 493 493 606 0 108 -46 184 -143 232 -68 34 -135 39
-202 15z m161 -169 c29 -29 34 -41 34 -82 l0 -49 -452 -451 c-466 -465 -470
-468 -535 -456 -43 7 -490 454 -505 504 -22 73 30 138 110 138 44 0 45 -1 216
-170 155 -153 176 -170 206 -170 32 0 63 29 410 374 206 205 384 378 395 384
40 22 85 14 121 -22z"/>
<path d="M3978 3120 c-22 -13 -33 -53 -53 -185 -121 -801 -478 -1420 -1025
-1778 -105 -68 -312 -177 -338 -177 -22 0 -172 73 -274 133 -123 73 -235 157
-347 262 -77 72 -96 85 -124 85 -42 0 -70 -29 -70 -71 0 -24 13 -44 64 -95
113 -116 290 -249 445 -337 87 -49 282 -137 303 -137 23 0 182 72 286 129 469
258 821 681 1043 1251 86 221 184 622 199 808 5 72 4 81 -16 101 -22 22 -64
27 -93 11z"/>
</g>
</svg>
