<?xml version="1.0" standalone="no"?>
<!DOCTYPE svg PUBLIC "-//W3C//DTD SVG 20010904//EN"
 "http://www.w3.org/TR/2001/REC-SVG-20010904/DTD/svg10.dtd">
<svg version="1.0" xmlns="http://www.w3.org/2000/svg"
 width="512.000000pt" height="512.000000pt" viewBox="0 0 512.000000 512.000000"
 preserveAspectRatio="xMidYMid meet">

<g transform="translate(0.000000,512.000000) scale(0.100000,-0.100000)"
fill="#5599E4" stroke="none">
<path d="M320 4947 c-19 -6 -58 -34 -85 -62 -71 -70 -91 -145 -63 -239 16 -55
99 -138 154 -154 28 -8 126 -12 298 -12 l256 0 2 -1768 3 -1768 37 -76 c45
-91 103 -147 196 -191 64 -30 74 -32 215 -35 106 -3 147 -7 143 -16 -43 -101
-44 -201 -2 -285 37 -72 68 -104 138 -142 58 -31 70 -34 148 -33 67 0 95 5
130 22 73 35 117 78 150 146 48 98 49 184 4 294 -5 9 183 12 916 12 733 0 921
-3 916 -12 -44 -105 -44 -203 -2 -287 37 -72 68 -104 138 -142 58 -31 70 -34
148 -33 67 0 95 5 130 22 73 35 117 78 150 146 48 98 49 184 4 294 -4 9 30 12
152 12 192 0 223 8 289 75 71 70 91 146 63 237 -15 51 -78 122 -128 144 -34
15 -37 20 -29 41 15 39 12 1846 -3 1897 -16 55 -99 138 -154 154 -30 9 -164
12 -476 12 l-434 0 -12 93 c-7 50 -24 158 -39 238 l-26 145 58 149 c47 124 56
157 52 193 -5 48 -27 84 -71 116 -27 21 -33 21 -1045 21 l-1018 0 -35 -27
c-43 -33 -73 -103 -65 -147 4 -17 30 -92 59 -168 l53 -138 -17 -90 c-70 -365
-92 -614 -92 -1025 0 -411 22 -662 92 -1025 l18 -90 -47 -121 c-26 -66 -53
-139 -60 -162 l-12 -42 -78 0 -79 0 -2 1768 -3 1767 -32 67 c-44 93 -100 151
-191 196 l-76 37 -350 2 c-239 1 -362 -2 -386 -10z m714 -159 c55 -16 138 -99
154 -154 9 -32 12 -447 12 -1793 0 -1935 -5 -1793 66 -1847 l37 -29 1730 -5
1729 -5 19 -24 c26 -32 24 -77 -6 -106 l-24 -25 -1752 0 c-1314 0 -1761 3
-1791 12 -49 15 -120 76 -144 125 -18 37 -19 103 -24 1819 l-5 1781 -29 37
c-48 63 -63 66 -366 66 l-271 0 -24 25 c-16 15 -25 36 -25 55 0 19 9 40 25 55
l24 25 312 0 c215 0 324 -4 353 -12z m2552 -825 c-8 -21 -35 -91 -60 -157
l-46 -119 24 -126 c35 -183 59 -340 53 -355 -3 -8 -20 -17 -38 -21 -48 -11
-132 -99 -147 -155 -10 -35 -12 -261 -10 -978 l3 -932 -842 0 -841 0 56 143
c37 94 56 156 56 182 -1 22 -13 103 -28 180 -114 596 -114 1275 0 1870 15 77
27 158 28 180 0 26 -19 88 -56 183 l-56 142 958 0 959 0 -13 -37z m94 -1123
l0 -200 240 0 240 0 0 200 0 200 215 0 c216 0 216 0 240 -25 l25 -24 0 -416 0
-415 -560 0 -560 0 0 415 0 416 25 24 c20 21 34 25 80 25 l55 0 0 -200z m320
80 l0 -120 -80 0 -80 0 0 120 0 120 80 0 80 0 0 -120z m-320 -1120 l0 -200
240 0 240 0 0 200 0 200 240 0 240 0 0 -415 0 -416 -25 -24 -24 -25 -511 0
-511 0 -24 25 -25 24 0 416 0 415 80 0 80 0 0 -200z m320 80 l0 -120 -80 0
-80 0 0 120 0 120 80 0 80 0 0 -120z m-2177 -1254 c103 -43 128 -177 48 -257
-65 -65 -157 -65 -222 0 -124 123 13 325 174 257z m2400 0 c103 -43 128 -177
48 -257 -65 -65 -157 -65 -222 0 -124 123 13 325 174 257z"/>
<path d="M2080 3520 l0 -80 560 0 560 0 0 80 0 80 -560 0 -560 0 0 -80z"/>
<path d="M2546 3190 c-63 -16 -153 -70 -197 -117 -22 -24 -55 -74 -72 -111
-29 -61 -32 -76 -32 -163 0 -90 2 -99 37 -171 45 -91 103 -147 196 -191 61
-29 76 -32 162 -32 86 0 101 3 162 32 93 44 151 100 196 191 35 72 37 81 37
172 0 91 -2 100 -37 172 -68 136 -188 217 -336 224 -42 2 -94 -1 -116 -6z
m168 -162 c86 -26 166 -136 166 -228 0 -124 -116 -240 -240 -240 -92 0 -202
80 -228 166 -28 94 -8 169 63 239 70 71 145 90 239 63z"/>
<path d="M2080 1840 l0 -80 240 0 240 0 0 80 0 80 -240 0 -240 0 0 -80z"/>
<path d="M2720 1840 l0 -80 240 0 240 0 0 80 0 80 -240 0 -240 0 0 -80z"/>
<path d="M2080 1520 l0 -80 560 0 560 0 0 80 0 80 -560 0 -560 0 0 -80z"/>
<path d="M2480 4840 l0 -120 -120 0 -120 0 0 -80 0 -80 120 0 120 0 0 -120 0
-120 80 0 80 0 0 120 0 120 120 0 120 0 0 80 0 80 -120 0 -120 0 0 120 0 120
-80 0 -80 0 0 -120z m160 -200 l0 -80 -80 0 -80 0 0 80 0 80 80 0 80 0 0 -80z"/>
<path d="M4320 4922 c0 -52 -25 -142 -56 -204 -67 -131 -239 -238 -386 -238
l-38 0 0 -80 0 -80 38 0 c52 0 142 -25 204 -56 131 -67 238 -239 238 -386 l0
-38 80 0 80 0 0 38 c0 147 107 319 238 386 62 31 152 56 204 56 l38 0 0 80 0
80 -38 0 c-52 0 -142 25 -204 56 -131 67 -238 239 -238 386 l0 38 -80 0 -80 0
0 -38z m130 -363 c24 -33 71 -81 104 -106 34 -25 61 -49 61 -53 0 -4 -27 -28
-61 -53 -33 -25 -80 -73 -104 -106 -25 -34 -47 -61 -50 -61 -3 0 -25 27 -49
59 -37 51 -110 119 -161 151 -8 5 -12 11 -10 13 3 2 33 25 67 51 34 26 81 74
104 107 24 32 46 59 49 59 3 0 25 -27 50 -61z"/>
<path d="M3360 4720 l0 -80 80 0 80 0 0 80 0 80 -80 0 -80 0 0 -80z"/>
<path d="M4000 3520 l0 -80 80 0 80 0 0 80 0 80 -80 0 -80 0 0 -80z"/>
<path d="M480 1680 l0 -80 120 0 120 0 0 80 0 80 -120 0 -120 0 0 -80z"/>
<path d="M320 1360 l0 -80 200 0 200 0 0 80 0 80 -200 0 -200 0 0 -80z"/>
<path d="M160 1040 l0 -80 200 0 200 0 0 80 0 80 -200 0 -200 0 0 -80z"/>
</g>
</svg>
